HIERARCHY
ROOT root
{
	OFFSET 0.000000 0.000000 0.000000
	CHANNELS 6 Xposition Yposition Zposition Zrotation Yrotation Xrotation
	JOINT lhip
	{
		OFFSET 0.058581 -0.082280 -0.017664
		CHANNELS 3 Zrotation Yrotation Xrotation
		JOINT lknee
		{
			OFFSET 0.043451 -0.386469 0.008037
			CHANNELS 3 Zrotation Yrotation Xrotation
			JOINT lankle
			{
				OFFSET -0.014790 -0.426874 -0.037428
				CHANNELS 3 Zrotation Yrotation Xrotation
				JOINT ltoe
				{
					OFFSET 0.041054 -0.060286 0.122042
					CHANNELS 3 Zrotation Yrotation Xrotation
					End Site
					{
						OFFSET 0.000000 0.000000 0.000000
					}
				}
			}
		}
	}
	JOINT rhip
	{
		OFFSET -0.060310 -0.090513 -0.013543
		CHANNELS 3 Zrotation Yrotation Xrotation
		JOINT rknee
		{
			OFFSET -0.043257 -0.383688 -0.004843
			CHANNELS 3 Zrotation Yrotation Xrotation
			JOINT rankle
			{
				OFFSET 0.019056 -0.420046 -0.034562
				CHANNELS 3 Zrotation Yrotation Xrotation
				JOINT rtoe
				{
					OFFSET -0.034840 -0.062106 0.130323
					CHANNELS 3 Zrotation Yrotation Xrotation
					End Site
					{
						OFFSET 0.000000 0.000000 0.000000
					}
				}
			}
		}
	}
	JOINT lowerback
	{
		OFFSET 0.004439 0.124404 -0.038385
		CHANNELS 3 Zrotation Yrotation Xrotation
		JOINT upperback
		{
			OFFSET 0.004488 0.137956 0.026820
			CHANNELS 3 Zrotation Yrotation Xrotation
			JOINT chest
			{
				OFFSET -0.002265 0.056032 0.002855
				CHANNELS 3 Zrotation Yrotation Xrotation
				JOINT lowerneck
				{
					OFFSET -0.013390 0.211636 -0.033468
					CHANNELS 3 Zrotation Yrotation Xrotation
					JOINT upperneck
					{
						OFFSET 0.010113 0.088937 0.050410
						CHANNELS 3 Zrotation Yrotation Xrotation
						End Site
						{
							OFFSET 0.000000 0.000000 0.000000
						}
					}
				}
				JOINT lclavicle
				{
					OFFSET 0.071702 0.114000 -0.018898
					CHANNELS 3 Zrotation Yrotation Xrotation
					JOINT lshoulder
					{
						OFFSET 0.122921 0.045205 -0.019046
						CHANNELS 3 Zrotation Yrotation Xrotation
						JOINT lelbow
						{
							OFFSET 0.255332 -0.015649 -0.022946
							CHANNELS 3 Zrotation Yrotation Xrotation
							JOINT lwrist
							{
								OFFSET 0.265709 0.012698 -0.007375
								CHANNELS 3 Zrotation Yrotation Xrotation
								End Site
								{
									OFFSET 0.000000 0.000000 0.000000
								}
							}
						}
					}
				}
				JOINT rclavicle
				{
					OFFSET -0.082954 0.112472 -0.023707
					CHANNELS 3 Zrotation Yrotation Xrotation
					JOINT rshoulder
					{
						OFFSET -0.113228 0.046853 -0.008472
						CHANNELS 3 Zrotation Yrotation Xrotation
						JOINT relbow
						{
							OFFSET -0.260127 -0.014369 -0.031269
							CHANNELS 3 Zrotation Yrotation Xrotation
							JOINT rwrist
							{
								OFFSET -0.269108 0.006794 -0.006027
								CHANNELS 3 Zrotation Yrotation Xrotation
								End Site
								{
									OFFSET 0.000000 0.000000 0.000000
								}
							}
						}
					}
				}
			}
		}
	}
}
MOTION
Frames: 11
Frame Time: 0.033333
-0.015397 -1.057084 0.972265 -169.748475 0.116108 100.996912 9.506105 3.929473 -6.384139 -3.446323 4.494406 -3.597715 0.353138 4.676969 -10.433253 0.000000 -0.000000 0.000000 -8.265102 -16.575452 -5.532042 4.463255 -14.758184 2.300431 2.760907 -6.034515 -6.250532 0.000000 -0.000000 0.000000 0.000897 2.868004 -30.264811 1.238424 -5.135667 27.622892 -1.007983 -1.395022 -1.616753 -1.674140 21.505925 2.794665 -2.498088 21.329915 11.227843 -33.410568 -2.723986 5.989491 -53.694101 -8.773656 9.592217 9.285410 -27.915479 5.534193 0.663666 -9.924879 -4.668376 34.491751 1.265031 13.367829 47.102846 13.523446 4.878242 -17.324086 18.835783 -15.415145 10.486822 9.729189 -21.323736 
-0.015091 -1.059220 0.971686 -170.416678 0.233972 101.350169 9.610337 3.873104 -6.732614 -3.567629 5.091103 -3.648423 0.568349 4.982275 -10.397968 0.000000 -0.000000 0.000000 -8.059221 -14.783783 -6.449403 4.209431 -14.299129 2.600808 3.762524 -7.772005 -6.796485 0.000000 -0.000000 0.000000 0.792097 3.134995 -28.373430 1.139149 -4.141976 24.383472 -1.137235 -0.889602 -1.588965 -1.538417 22.957810 4.459791 -2.265726 24.794571 11.885488 -33.445618 -1.766102 5.809138 -53.633747 -8.320490 9.781486 8.646372 -27.714775 6.373450 0.119629 -10.123306 -3.292033 34.559716 0.720244 14.379398 47.150331 13.579294 4.948037 -17.068960 18.473517 -16.111952 11.638233 9.855986 -20.102894 
-0.015287 -1.064355 0.971549 -170.236096 0.367561 101.014007 9.709496 3.551043 -7.075362 -3.350856 5.265093 -2.988705 0.328434 4.913441 -10.414620 0.000000 -0.000000 0.000000 -7.945450 -12.888926 -6.564818 3.684635 -15.022547 3.050774 4.070233 -8.806767 -6.768562 0.000000 -0.000000 0.000000 2.009825 2.880827 -24.436092 0.683719 -3.187242 20.472316 -1.324200 -0.331976 -2.006916 -1.708323 23.961541 6.108437 -2.183057 27.165769 11.192549 -33.103446 -1.158632 5.692989 -53.982879 -7.771759 10.044168 8.408528 -27.864383 7.071402 -1.354049 -10.701195 -3.523111 34.020511 0.360215 14.547863 48.202449 13.019816 5.558344 -16.929428 18.657602 -15.447851 11.787919 10.039239 -19.886326 
-0.017423 -1.070640 0.975184 -167.802588 -0.462766 98.748112 8.612225 2.158235 -6.011282 -2.605651 4.154424 -2.317909 -0.021699 4.768125 -10.310380 0.000000 -0.000000 0.000000 -9.187500 -13.724065 -3.743938 3.680889 -16.318422 2.911437 4.610663 -8.521994 -7.039226 0.000000 -0.000000 0.000000 1.485558 3.101818 -19.904612 -0.122896 -3.587794 19.228251 -0.712749 -0.478491 -2.910713 -1.840526 24.500142 6.416656 -2.275800 28.043274 10.784638 -32.765506 -1.623444 5.200298 -54.628645 -7.555531 10.678969 8.966083 -27.625276 6.716752 -1.940401 -10.733140 -3.619191 33.597521 1.205298 13.892940 49.405663 12.138323 6.671365 -17.281105 18.795737 -16.367758 10.446148 10.415944 -19.496989 
-0.017353 -1.071550 0.975675 -167.748973 -0.475059 98.773298 8.582213 2.225776 -6.146367 -2.601953 4.276012 -2.264705 -0.144120 4.617922 -10.318607 0.000000 -0.000000 0.000000 -9.099909 -13.310838 -3.875535 3.545756 -16.593862 2.979759 4.543975 -8.657919 -7.102158 0.000000 -0.000000 0.000000 1.566791 3.155028 -19.864246 -0.169485 -3.172768 19.052078 -0.752849 -0.331800 -2.861949 -1.784561 24.584480 6.362472 -2.299819 27.942068 10.882986 -32.661012 -1.551001 5.194440 -54.720387 -7.572536 10.633005 8.972552 -27.608336 6.848979 -2.114354 -10.902387 -3.752748 33.523743 1.243823 14.013238 49.669192 12.247439 6.766631 -17.250456 18.797305 -16.088511 9.936487 10.653211 -19.780602 
-0.017511 -1.073530 0.976585 -167.313791 -0.668827 98.687249 8.340603 1.813241 -6.217301 -2.584093 4.061408 -2.383549 -0.070312 4.965043 -10.146076 0.000000 -0.000000 0.000000 -9.162015 -12.432603 -3.879066 3.324481 -17.092363 3.056742 4.416252 -9.396813 -7.209731 0.000000 -0.000000 0.000000 1.513846 3.177687 -19.398639 -0.276157 -2.530980 18.461664 -0.719607 -0.173888 -2.751403 -1.812966 24.309770 6.176751 -2.314667 27.740017 10.956340 -32.609511 -1.400029 5.232360 -54.838539 -7.579936 10.696623 8.958708 -27.584389 6.715173 -2.045097 -10.809491 -4.177750 33.414861 1.372834 14.058358 50.016021 12.353710 7.154957 -17.101685 18.932871 -16.010100 9.126071 10.600181 -20.320371 
-0.017876 -1.084785 0.980188 -170.029728 -0.371011 95.822240 8.042590 2.686316 -3.050074 -2.343662 4.331012 -2.807956 -0.174372 6.478259 -10.419527 0.000000 -0.000000 0.000000 -9.404994 -7.855336 -3.268002 2.185495 -17.746166 5.153144 5.030289 -9.922080 -7.640727 0.000000 -0.000000 0.000000 3.388987 3.249037 -10.910856 -0.673119 0.373174 13.815216 -1.259187 0.718885 -3.186275 -2.110464 23.824643 5.455960 -2.439445 27.593428 11.220606 -32.750351 -1.690739 4.290743 -55.096900 -6.965803 11.050092 9.243808 -27.229456 5.736400 -1.931561 -11.193276 -3.715007 33.335091 2.738010 12.972060 50.021069 11.284516 7.708912 -16.833371 18.993242 -17.173328 8.697458 10.764805 -19.777324 
-0.018326 -1.086269 0.981146 -169.364778 -0.484297 95.645959 7.892879 2.387260 -3.159609 -2.282548 4.244939 -2.660617 -0.204126 6.268960 -10.389715 0.000000 -0.000000 0.000000 -9.409990 -7.689267 -2.767431 2.199288 -18.343077 4.728341 4.818421 -10.050980 -7.628765 0.000000 -0.000000 0.000000 3.405823 3.285326 -10.607325 -0.844036 0.557968 13.490206 -1.312153 0.857250 -3.087212 -1.951703 23.812200 5.318604 -2.378711 27.259678 11.278161 -32.698500 -1.625484 4.389659 -55.253429 -6.772473 10.914195 9.500134 -27.139000 5.348980 -2.646854 -11.409344 -4.099784 33.337226 2.904375 13.061167 50.019079 11.623335 7.792142 -16.872271 19.578001 -17.056208 7.896140 10.802466 -19.932736 
-0.018173 -1.087236 0.981601 -168.852825 -0.353278 95.645032 8.072107 2.575364 -3.411002 -2.290987 4.056817 -2.544888 -0.382213 5.830431 -10.370205 0.000000 -0.000000 0.000000 -9.145177 -8.286828 -2.593461 2.210753 -18.480072 4.517196 4.760526 -9.779173 -7.604705 0.000000 -0.000000 0.000000 3.589986 3.541595 -10.674808 -0.958346 0.627828 13.456891 -1.322505 0.930074 -3.025933 -1.932251 23.557799 5.111410 -2.246456 27.064939 11.389014 -32.742408 -1.523011 4.449294 -55.325534 -6.573020 10.499315 9.594094 -26.926169 5.002027 -2.695196 -11.278614 -4.197704 33.382998 3.113791 13.248220 49.777755 12.051600 7.551037 -16.736023 20.277473 -16.969665 7.644900 10.942431 -20.180938 
-0.018403 -1.087568 0.981607 -168.265567 -0.447287 95.415664 8.006219 2.612031 -3.300968 -2.270442 3.689242 -2.617006 -0.531163 5.548988 -10.334140 0.000000 -0.000000 0.000000 -9.239537 -8.596909 -2.339637 2.164164 -18.572809 4.729259 4.700868 -9.854658 -7.776935 0.000000 -0.000000 0.000000 3.532531 3.627876 -10.622917 -1.039455 0.695320 13.651159 -1.350221 0.948256 -2.992081 -1.771712 23.460952 4.749020 -2.215211 26.671543 11.606590 -32.519674 -1.372585 4.222158 -55.608447 -6.380551 10.403610 9.585603 -26.445761 4.882008 -2.829449 -10.841045 -4.491406 33.210152 3.189663 13.033377 49.808036 12.530176 7.628736 -16.514640 20.874251 -17.094119 7.364699 10.859969 -20.449273 
-0.018524 -1.088495 0.981936 -167.932629 -0.525109 95.441213 7.908794 2.165712 -3.474630 -2.158919 3.790186 -2.675402 -0.833604 5.549482 -10.101890 0.000000 -0.000000 0.000000 -9.244111 -8.494252 -2.425811 2.051710 -18.831174 4.819362 4.747395 -10.002618 -7.809915 0.000000 -0.000000 0.000000 3.494588 3.755237 -10.712093 -1.082591 0.817622 13.709187 -1.371490 1.010771 -3.052107 -1.727726 23.352930 4.792704 -2.269820 26.499375 11.446435 -32.617300 -1.256917 4.293749 -55.557970 -6.128358 10.318216 9.746765 -26.004690 4.431836 -2.662010 -11.080241 -4.430930 33.108053 3.322594 12.913657 49.703960 12.836863 7.745545 -16.266893 21.440347 -17.256814 7.104009 10.972634 -21.227789 
